<svg width="272" height="34" viewBox="0 0 272 34" fill="none" xmlns="http://www.w3.org/2000/svg">
<path d="M17 34C26.3888 34 34 26.3888 34 17C34 7.61116 26.3888 0 17 0C7.61116 0 0 7.61116 0 17C0 26.3888 7.61116 34 17 34Z" fill="url(#paint0_linear_7478_457)"/>
<path opacity="0.9" d="M14.6751 23.4644C13.0805 23.0386 11.6761 22.196 10.5708 21.0725C9.22987 19.7135 8.32384 18.0464 8.04297 16.0894V5.14453H10.7701C12.2016 5.14453 13.2979 6.32237 13.2798 7.76295L13.1258 20.3839C13.1258 20.5017 13.1258 20.6104 13.1439 20.7192C13.162 20.9638 13.2073 21.2084 13.2798 21.4349C13.3161 21.5527 13.3523 21.6705 13.3976 21.7792C13.3976 21.7973 13.4157 21.8245 13.4248 21.8426C13.4248 21.8608 13.4429 21.8789 13.452 21.897C13.5154 22.051 13.5969 22.196 13.6785 22.3409C13.6785 22.35 13.6875 22.3681 13.6966 22.3772C13.7781 22.5131 13.8778 22.649 13.9775 22.7758C14.0952 22.9208 14.213 23.0567 14.3489 23.1745C14.4576 23.2742 14.5664 23.3648 14.6842 23.4554L14.6751 23.4644Z" fill="url(#paint1_linear_7478_457)"/>
<path opacity="0.9" d="M26.0632 16.1094V19.8603C26.0632 24.8344 22.0676 28.9206 17.0844 28.9478C12.1103 28.9659 8.0332 24.9069 8.0332 19.9419V16.1366C8.40467 17.9758 9.37413 19.8966 10.6426 21.1469C10.6697 21.1741 10.6969 21.2013 10.7332 21.2284C12.3821 22.8049 14.62 23.7653 17.0572 23.7653C17.0844 23.7653 17.1116 23.7653 17.1388 23.7653C19.5398 23.7472 21.7414 22.7959 23.3813 21.2284C23.4176 21.1922 23.4538 21.156 23.4991 21.1197C24.831 19.806 25.7642 18.0664 26.0813 16.1094H26.0632Z" fill="url(#paint2_linear_7478_457)"/>
<path opacity="0.9" d="M25.6727 15.3494C25.1834 19.2725 22.2388 21.6554 20.2637 22.6157C20.7257 21.9725 20.9885 21.1752 20.9794 20.3869C20.9613 19.0369 20.8707 12.0062 20.8707 12.0062C20.8707 11.9609 20.8707 11.9246 20.8707 11.8793C21.1878 9.07968 24.368 9.24276 26.0623 9.65954C25.2649 9.98571 25.8539 13.8273 25.6727 15.3494Z" fill="url(#paint3_linear_7478_457)"/>
<path d="M26.0729 16.1172V19.9316C24.6958 23.7369 21.0898 26.2647 17.058 26.2647C13.0261 26.2647 9.42013 23.7369 8.04297 19.9406V16.1444C8.40538 17.9836 9.37483 19.9044 10.6433 21.1547C10.6795 21.1819 10.7067 21.2091 10.7339 21.2362C12.3828 22.8218 14.6207 23.7731 17.058 23.7731H17.1395C19.5405 23.755 21.7421 22.8037 23.373 21.2362C23.4183 21.2 23.4545 21.1638 23.4908 21.1275C24.8226 19.8047 25.7468 18.0742 26.0729 16.1172Z" fill="url(#paint4_linear_7478_457)"/>
<path d="M17.0482 23.7623C12.5724 23.7623 8.74897 20.4916 8.0332 16.043C8.56776 20.6456 12.4456 24.1247 17.0482 24.1247C21.6508 24.1247 25.5286 20.6547 26.0632 16.043C25.3474 20.4916 21.524 23.7623 17.0482 23.7623Z" fill="url(#paint5_linear_7478_457)"/>
<path opacity="0.9" d="M25.6748 15.3462C25.4212 17.3576 24.5333 18.9613 23.4551 20.1754V9.46612C24.3792 9.34834 25.3487 9.48424 26.0644 9.65639C25.2762 9.9735 25.8651 13.8241 25.6748 15.3462Z" fill="url(#paint6_linear_7478_457)"/>
<path opacity="0.9" d="M8.0332 16.0986V16.0352C8.04226 16.1348 8.06039 16.2345 8.07851 16.3251C8.06039 16.2526 8.04226 16.1801 8.0332 16.0986Z" fill="url(#paint7_linear_7478_457)"/>
<path opacity="0.9" d="M10.7604 5.14453L10.706 21.1812C9.32882 19.8494 8.35937 18.0554 8.0332 16.035V5.14453H10.7604Z" fill="url(#paint8_linear_7478_457)"/>
<path d="M54.7054 25.28C51.112 25.28 48.522 22.5967 48.522 18.8633V9.83333H51.112V18.77C51.112 21.08 52.6287 22.7367 54.7054 22.7367C56.8054 22.7367 58.322 21.08 58.322 18.77V9.83333H60.912V18.8633C60.912 22.5967 58.322 25.28 54.7054 25.28ZM62.9843 25V9.83333H70.101C72.5277 9.83333 74.2543 11.42 74.2543 13.66C74.2543 15.27 73.2743 16.6233 71.6877 17.09C73.601 17.51 74.8377 18.98 74.8377 20.8933C74.8377 23.2967 73.0643 25 70.591 25H62.9843ZM65.5743 22.5967H69.8677C71.1977 22.5967 72.1777 21.71 72.1777 20.45C72.1777 19.2133 71.221 18.3033 69.891 18.3033H65.5743V22.5967ZM65.5743 16.2033H69.471C70.731 16.2033 71.6643 15.3633 71.6643 14.1967C71.6643 13.03 70.7543 12.19 69.4943 12.19H65.5743V16.2033ZM79.3824 25L75.019 13.3333H77.819L80.8757 22.55L83.8624 13.3333H86.569L82.3224 25H79.3824ZM92.3872 25.28C88.9572 25.28 86.5539 22.7367 86.5539 19.1667C86.5539 15.5967 88.9106 13.0533 92.2239 13.0533C95.9339 13.0533 98.0806 16.2267 97.7539 19.9367H89.1672C89.4706 21.71 90.7306 22.9 92.4106 22.9C93.7406 22.9 94.8139 22.1533 95.0939 21.0567L97.5906 21.9433C96.9839 23.9267 94.9072 25.28 92.3872 25.28ZM89.1906 18.1167H95.1872C94.9539 16.4833 93.7406 15.3867 92.2239 15.3867C90.6839 15.3867 89.5172 16.4833 89.1906 18.1167ZM99.3409 25V13.3333H101.324L101.674 15.0367C102.234 13.4267 104.101 12.6567 105.944 13.2867L105.711 16.0633C103.891 15.1767 101.791 15.9 101.791 18.3033V25H99.3409ZM111.213 25.28C108.343 25.28 106.197 23.7167 106.01 21.5467L108.81 20.8933C108.88 22.1533 109.953 23.0867 111.377 23.0867C112.473 23.0867 113.29 22.5033 113.29 21.6633C113.29 19.26 106.57 20.17 106.57 16.32C106.57 14.3833 108.367 13.0533 110.91 13.0533C113.523 13.0533 115.413 14.4067 115.6 16.2967L112.94 16.9033C112.917 15.8767 112.053 15.1767 110.84 15.1767C109.813 15.1767 109.113 15.69 109.113 16.4367C109.113 18.77 115.927 17.8133 115.927 21.7567C115.927 23.81 113.967 25.28 111.213 25.28ZM122.501 25.28C119.071 25.28 116.668 22.7367 116.668 19.1667C116.668 15.5967 119.024 13.0533 122.338 13.0533C126.048 13.0533 128.194 16.2267 127.868 19.9367H119.281C119.584 21.71 120.844 22.9 122.524 22.9C123.854 22.9 124.928 22.1533 125.208 21.0567L127.704 21.9433C127.098 23.9267 125.021 25.28 122.501 25.28ZM119.304 18.1167H125.301C125.068 16.4833 123.854 15.3867 122.338 15.3867C120.798 15.3867 119.631 16.4833 119.304 18.1167ZM140.349 25.28C138.669 25.28 137.246 24.51 136.336 23.2033L135.939 25H133.956V9.13333H136.406V14.99C137.339 13.7767 138.716 13.0533 140.349 13.0533C143.383 13.0533 145.576 15.5733 145.576 19.12C145.576 22.7133 143.383 25.28 140.349 25.28ZM139.719 22.8767C141.656 22.8767 143.033 21.3133 143.033 19.1667C143.033 16.9733 141.656 15.41 139.719 15.41C137.759 15.41 136.383 16.9733 136.383 19.1667C136.383 21.3133 137.759 22.8767 139.719 22.8767ZM147.239 27.5667C148.266 27.4967 149.129 26.9367 149.549 25.9567L150.086 24.6267L145.489 13.3333H148.289L151.299 21.78L154.053 13.3333H156.806L151.766 26.68C151.043 28.5933 149.759 29.8067 148.173 29.9467L147.239 27.5667ZM168.221 25.28C164.628 25.28 162.038 22.5967 162.038 18.8633V9.83333H164.628V18.77C164.628 21.08 166.144 22.7367 168.221 22.7367C170.321 22.7367 171.838 21.08 171.838 18.77V9.83333H174.428V18.8633C174.428 22.5967 171.838 25.28 168.221 25.28ZM176.477 25V13.3333H178.437L178.81 15.2467C179.44 13.94 180.91 13.0533 182.59 13.0533C185.157 13.0533 186.977 15.0833 186.977 17.86V25H184.527V18.2567C184.527 16.6233 183.453 15.4567 181.89 15.4567C180.187 15.4567 178.927 16.7867 178.927 18.6533V25H176.477ZM188.999 25V9.83333H196.116C198.542 9.83333 200.269 11.42 200.269 13.66C200.269 15.27 199.289 16.6233 197.702 17.09C199.616 17.51 200.852 18.98 200.852 20.8933C200.852 23.2967 199.079 25 196.606 25H188.999ZM191.589 22.5967H195.882C197.212 22.5967 198.192 21.71 198.192 20.45C198.192 19.2133 197.236 18.3033 195.906 18.3033H191.589V22.5967ZM191.589 16.2033H195.486C196.746 16.2033 197.679 15.3633 197.679 14.1967C197.679 13.03 196.769 12.19 195.509 12.19H191.589V16.2033ZM207.613 25.28C204.183 25.28 201.756 22.7367 201.756 19.1667C201.756 15.5967 204.183 13.0533 207.613 13.0533C211.043 13.0533 213.493 15.5967 213.493 19.1667C213.493 22.7367 211.043 25.28 207.613 25.28ZM207.613 22.8767C209.549 22.8767 210.949 21.3367 210.949 19.1667C210.949 16.95 209.549 15.3867 207.613 15.3867C205.676 15.3867 204.299 16.95 204.299 19.1667C204.299 21.3367 205.676 22.8767 207.613 22.8767ZM219.221 25.28C216.655 25.28 214.835 23.39 214.835 20.66V13.3333H217.285V20.1933C217.285 21.71 218.381 22.83 219.921 22.83C221.555 22.83 222.721 21.5933 222.721 19.89V13.3333H225.171V22.6667L225.218 25H223.188L222.768 23.2267C222.231 24.4633 220.878 25.28 219.221 25.28ZM227.361 25V13.3333H229.321L229.694 15.2467C230.324 13.94 231.794 13.0533 233.474 13.0533C236.041 13.0533 237.861 15.0833 237.861 17.86V25H235.411V18.2567C235.411 16.6233 234.337 15.4567 232.774 15.4567C231.071 15.4567 229.811 16.7867 229.811 18.6533V25H227.361ZM244.55 25.28C241.446 25.28 239.23 22.7367 239.23 19.1667C239.23 15.5733 241.423 13.0533 244.526 13.0533C246.113 13.0533 247.49 13.7533 248.423 14.9433V9.13333H250.873V22.6667L250.92 25H248.913L248.54 23.25C247.606 24.51 246.206 25.28 244.55 25.28ZM245.11 22.8767C247.046 22.8767 248.446 21.3133 248.446 19.1667C248.446 16.9733 247.046 15.41 245.11 15.41C243.173 15.41 241.773 16.9733 241.773 19.1667C241.773 21.3133 243.173 22.8767 245.11 22.8767ZM256.376 25L261.789 17.3L256.516 9.83333H259.806L263.329 15.1533L266.642 9.83333H269.886L264.799 17.2533L270.259 25H266.969L263.306 19.4467L259.712 25H256.376Z" fill="#333333" style="fill:#333333;fill:color(display-p3 0.2000 0.2000 0.2000);fill-opacity:1;"/>
<defs>
<linearGradient id="paint0_linear_7478_457" x1="-14.6226" y1="6.04161" x2="54.3915" y2="29.9609" gradientUnits="userSpaceOnUse">
<stop offset="0.24" stop-color="#FEB600" style="stop-color:#FEB600;stop-color:color(display-p3 0.9961 0.7137 0.0000);stop-opacity:1;"/>
<stop offset="0.41" stop-color="#B32E71" style="stop-color:#B32E71;stop-color:color(display-p3 0.7020 0.1804 0.4431);stop-opacity:1;"/>
<stop offset="0.55" stop-color="#93079D" style="stop-color:#93079D;stop-color:color(display-p3 0.5765 0.0275 0.6157);stop-opacity:1;"/>
<stop offset="0.71" stop-color="#08C0F9" style="stop-color:#08C0F9;stop-color:color(display-p3 0.0314 0.7529 0.9765);stop-opacity:1;"/>
</linearGradient>
<linearGradient id="paint1_linear_7478_457" x1="11.359" y1="2.1637" x2="11.359" y2="21.743" gradientUnits="userSpaceOnUse">
<stop stop-color="white" stop-opacity="0.9" style="stop-color:white;stop-opacity:0.9;"/>
<stop offset="0.29" stop-color="white" stop-opacity="0.85" style="stop-color:white;stop-opacity:0.85;"/>
<stop offset="0.75" stop-color="#F2F2F2" stop-opacity="0.6" style="stop-color:#F2F2F2;stop-color:color(display-p3 0.9490 0.9490 0.9490);stop-opacity:0.6;"/>
<stop offset="1" stop-color="#F2F2F2" stop-opacity="0.45" style="stop-color:#F2F2F2;stop-color:color(display-p3 0.9490 0.9490 0.9490);stop-opacity:0.45;"/>
</linearGradient>
<linearGradient id="paint2_linear_7478_457" x1="17.0482" y1="20.3043" x2="17.0482" y2="30.325" gradientUnits="userSpaceOnUse">
<stop stop-color="white" stop-opacity="0.9" style="stop-color:white;stop-opacity:0.9;"/>
<stop offset="0.29" stop-color="white" stop-opacity="0.7" style="stop-color:white;stop-opacity:0.7;"/>
<stop offset="0.75" stop-color="#F2F2F2" stop-opacity="0.65" style="stop-color:#F2F2F2;stop-color:color(display-p3 0.9490 0.9490 0.9490);stop-opacity:0.65;"/>
<stop offset="1" stop-color="#F2F2F2" stop-opacity="0.35" style="stop-color:#F2F2F2;stop-color:color(display-p3 0.9490 0.9490 0.9490);stop-opacity:0.35;"/>
</linearGradient>
<linearGradient id="paint3_linear_7478_457" x1="23.163" y1="7.85654" x2="23.163" y2="21.0483" gradientUnits="userSpaceOnUse">
<stop stop-color="white" stop-opacity="0.9" style="stop-color:white;stop-opacity:0.9;"/>
<stop offset="0.29" stop-color="white" stop-opacity="0.75" style="stop-color:white;stop-opacity:0.75;"/>
<stop offset="0.75" stop-color="#F2F2F2" stop-opacity="0.6" style="stop-color:#F2F2F2;stop-color:color(display-p3 0.9490 0.9490 0.9490);stop-opacity:0.6;"/>
<stop offset="1" stop-color="#F2F2F2" stop-opacity="0.45" style="stop-color:#F2F2F2;stop-color:color(display-p3 0.9490 0.9490 0.9490);stop-opacity:0.45;"/>
</linearGradient>
<linearGradient id="paint4_linear_7478_457" x1="17.058" y1="26.1832" x2="17.058" y2="11.9404" gradientUnits="userSpaceOnUse">
<stop stop-color="white" stop-opacity="0.5" style="stop-color:white;stop-opacity:0.5;"/>
<stop offset="0.29" stop-color="white" stop-opacity="0.1" style="stop-color:white;stop-opacity:0.1;"/>
<stop offset="0.75" stop-color="#F2F2F2" stop-opacity="0.1" style="stop-color:#F2F2F2;stop-color:color(display-p3 0.9490 0.9490 0.9490);stop-opacity:0.1;"/>
<stop offset="1" stop-color="#F2F2F2" stop-opacity="0.2" style="stop-color:#F2F2F2;stop-color:color(display-p3 0.9490 0.9490 0.9490);stop-opacity:0.2;"/>
</linearGradient>
<linearGradient id="paint5_linear_7478_457" x1="17.0482" y1="18.0272" x2="17.0482" y2="26.1089" gradientUnits="userSpaceOnUse">
<stop stop-color="white" stop-opacity="0.7" style="stop-color:white;stop-opacity:0.7;"/>
<stop offset="0.29" stop-color="white" stop-opacity="0.5" style="stop-color:white;stop-opacity:0.5;"/>
<stop offset="0.75" stop-color="#F2F2F2" stop-opacity="0.4" style="stop-color:#F2F2F2;stop-color:color(display-p3 0.9490 0.9490 0.9490);stop-opacity:0.4;"/>
<stop offset="1" stop-color="#F2F2F2" stop-opacity="0.4" style="stop-color:#F2F2F2;stop-color:color(display-p3 0.9490 0.9490 0.9490);stop-opacity:0.4;"/>
</linearGradient>
<linearGradient id="paint6_linear_7478_457" x1="24.7598" y1="9.58391" x2="24.7598" y2="19.5502" gradientUnits="userSpaceOnUse">
<stop stop-color="white" style="stop-color:white;stop-opacity:1;"/>
<stop offset="0.29" stop-color="white" stop-opacity="0.8" style="stop-color:white;stop-opacity:0.8;"/>
<stop offset="0.75" stop-color="#F2F2F2" stop-opacity="0.6" style="stop-color:#F2F2F2;stop-color:color(display-p3 0.9490 0.9490 0.9490);stop-opacity:0.6;"/>
<stop offset="1" stop-color="#F2F2F2" stop-opacity="0.4" style="stop-color:#F2F2F2;stop-color:color(display-p3 0.9490 0.9490 0.9490);stop-opacity:0.4;"/>
</linearGradient>
<linearGradient id="paint7_linear_7478_457" x1="8.05132" y1="16.3704" x2="8.05132" y2="16.0623" gradientUnits="userSpaceOnUse">
<stop stop-color="white" stop-opacity="0.9" style="stop-color:white;stop-opacity:0.9;"/>
<stop offset="0.29" stop-color="white" stop-opacity="0.85" style="stop-color:white;stop-opacity:0.85;"/>
<stop offset="0.75" stop-color="#F2F2F2" stop-opacity="0.6" style="stop-color:#F2F2F2;stop-color:color(display-p3 0.9490 0.9490 0.9490);stop-opacity:0.6;"/>
<stop offset="1" stop-color="#F2F2F2" stop-opacity="0.45" style="stop-color:#F2F2F2;stop-color:color(display-p3 0.9490 0.9490 0.9490);stop-opacity:0.45;"/>
</linearGradient>
<linearGradient id="paint8_linear_7478_457" x1="9.39225" y1="2.53517" x2="9.39225" y2="19.6682" gradientUnits="userSpaceOnUse">
<stop stop-color="white" style="stop-color:white;stop-opacity:1;"/>
<stop offset="0.29" stop-color="white" stop-opacity="0.9" style="stop-color:white;stop-opacity:0.9;"/>
<stop offset="0.75" stop-color="#F2F2F2" stop-opacity="0.6" style="stop-color:#F2F2F2;stop-color:color(display-p3 0.9490 0.9490 0.9490);stop-opacity:0.6;"/>
<stop offset="1" stop-color="#F2F2F2" stop-opacity="0.45" style="stop-color:#F2F2F2;stop-color:color(display-p3 0.9490 0.9490 0.9490);stop-opacity:0.45;"/>
</linearGradient>
</defs>
</svg>
